<svg id="Capa_1" data-name="Capa 1" xmlns="http://www.w3.org/2000/svg" viewBox="0 0 849.03 283.56"><defs><style>.cls-1{fill:#025490;}.cls-2{fill:#ccae7a;}</style></defs><path class="cls-1" d="M261.89,122V112.3h2.33V122a3.92,3.92,0,1,0,7.84,0V112.3h2.32V122a6.25,6.25,0,1,1-12.49,0Z"/><path class="cls-1" d="M268.11,129a6.62,6.62,0,0,1-6.89-7V111.63h3.67V122a3.25,3.25,0,1,0,6.49,0V111.63h3.67V122A6.65,6.65,0,0,1,268.11,129Zm-5.54-16v9a5.57,5.57,0,1,0,11.13,0v-9h-1v9a4.6,4.6,0,1,1-9.19,0v-9Z"/><path class="cls-1" d="M289.7,112.3h2.39l8.24,11.9V112.3h2.28v15.77H300.2L292,116.2v11.87H289.7Z"/><path class="cls-1" d="M303.28,128.75h-3.44l-7.21-10.39v10.39H289V111.63h3.42l7.22,10.4v-10.4h3.62Zm-2.73-1.35h1.38V113H301v13.38L291.73,113h-1.35V127.4h.89V114Z"/><path class="cls-1" d="M318.15,112.3h2.35v15.77h-2.35Z"/><path class="cls-1" d="M321.17,128.75h-3.69V111.63h3.69Zm-2.34-1.35h1V113h-1Z"/><path class="cls-1" d="M334.51,112.3h2.55l4.48,12.91L346,112.3h2.57l-5.68,15.77h-2.68Z"/><path class="cls-1" d="M343.32,128.75h-3.63l-6.14-17.12h4l4,11.5,3.93-11.5h4Zm-2.68-1.35h1.73L347.56,113h-1.12l-4.89,14.31-5-14.31h-1.11Z"/><path class="cls-1" d="M362.54,112.3H372.9v2.14h-8v4.44h7.35V121h-7.35v4.93h8v2.14H362.54Z"/><path class="cls-1" d="M373.58,128.75H361.86V111.63h11.72v3.49h-8v3.08h7.34v3.48h-7.34v3.58h8Zm-10.36-1.35h9v-.79h-8.05v-6.29h7.35v-.76h-7.35v-5.79h8.05V113h-9Z"/><path class="cls-1" d="M387.55,112.3h6.24c3.2,0,5.23,2.17,5.23,4.8a4.75,4.75,0,0,1-3.29,4.6L399.4,126v2.09H397v-1.48L393.14,122h-3.29v6.06h-2.3Zm6.22,7.6a2.74,2.74,0,1,0,0-5.48h-3.92v5.48Z"/><path class="cls-1" d="M400.08,128.75h-3.72v-1.91l-3.54-4.15h-2.3v6.06h-3.65V111.63h6.92c3.42,0,5.9,2.3,5.9,5.47a5.39,5.39,0,0,1-2.86,4.85l3.25,3.78Zm-2.37-1.35h1v-1.17l-4.15-4.85.94-.32a4.06,4.06,0,0,0,2.83-4c0-2.43-1.87-4.12-4.55-4.12h-5.56V127.4h.94v-6.06h4.28l4.26,5Zm-3.94-6.83h-4.6v-6.83h4.6a3.42,3.42,0,1,1,0,6.83Zm-3.25-1.35h3.25a2.06,2.06,0,1,0,0-4.12h-3.25Z"/><path class="cls-1" d="M422.45,123.7c0-1.15-.83-1.84-2.3-2.21l-2.48-.6c-2.36-.57-4-1.85-4-4.33,0-2.73,2.34-4.46,5.41-4.46,3.31,0,5.11,1.89,5.65,3.6l-2.05,1.09a3.5,3.5,0,0,0-3.6-2.55c-1.85,0-3,.9-3,2.28,0,1.14.85,1.8,2.18,2.11l2.59.61c2.77.68,4.08,2.28,4.08,4.42,0,2.5-2,4.62-5.95,4.62a6.19,6.19,0,0,1-6.1-3.77l2-1.12a4.14,4.14,0,0,0,4.15,2.7C421.48,126.09,422.45,124.94,422.45,123.7Z"/><path class="cls-1" d="M418.91,129a6.85,6.85,0,0,1-6.74-4.21l-.2-.54,3.25-1.82.24.81a3.48,3.48,0,0,0,3.5,2.22c1.79,0,2.81-.62,2.81-1.71,0-.3,0-1.11-1.78-1.55l-2.48-.61c-3.76-.89-4.55-3.2-4.55-5,0-3,2.51-5.14,6.09-5.14s5.7,2.2,6.3,4.08l.17.54-3.33,1.76-.2-.87a2.83,2.83,0,0,0-2.94-2c-1.15,0-2.37.42-2.37,1.6,0,.29,0,1.06,1.67,1.46l2.59.6c3,.73,4.6,2.53,4.6,5.08S423.49,129,418.91,129Zm-5.23-4.15a5.65,5.65,0,0,0,5.23,2.8c3.2,0,5.27-1.55,5.27-3.94,0-1.92-1.2-3.18-3.56-3.76l-2.58-.61c-2.24-.53-2.71-1.8-2.71-2.77,0-1.77,1.49-3,3.72-3a4.3,4.3,0,0,1,4,2.27l.83-.44a5,5,0,0,0-4.8-2.61c-2.79,0-4.73,1.55-4.73,3.78,0,1.91,1.15,3.11,3.51,3.67l2.48.61c2.33.57,2.82,1.87,2.82,2.86,0,1.48-1.1,3.07-4.17,3.07a5,5,0,0,1-4.48-2.42Z"/><path class="cls-1" d="M439.39,112.3h2.35v15.77h-2.35Z"/><path class="cls-1" d="M442.41,128.75h-3.69V111.63h3.69Zm-2.34-1.35h1V113h-1Z"/><path class="cls-1" d="M457.28,112.3h5.39a7.51,7.51,0,0,1,7.88,7.89,7.6,7.6,0,0,1-7.88,7.88h-5.39Zm5.25,13.63a5.75,5.75,0,0,0,0-11.49H459.6v11.49Z"/><path class="cls-1" d="M462.67,128.75h-6.06V111.63h6.06a8.19,8.19,0,0,1,8.56,8.56A8.28,8.28,0,0,1,462.67,128.75ZM458,127.4h4.71a6.9,6.9,0,0,0,7.21-7.21,6.83,6.83,0,0,0-7.21-7.21H458Zm4.57-.79h-3.6V113.77h3.6a6.42,6.42,0,0,1,0,12.84Zm-2.25-1.35h2.25a5.07,5.07,0,0,0,0-10.14h-2.25Z"/><path class="cls-1" d="M488.42,112.3h3.09l5.56,15.77h-2.45l-1.47-4.21h-6.44l-1.47,4.21h-2.41Zm4,9.37-2.46-7.09-2.46,7.09Z"/><path class="cls-1" d="M498,128.75h-3.9l-1.46-4.21h-5.48l-1.46,4.21h-3.85l6.06-17.12H492Zm-2.93-1.35h1L491,113h-.94l3.25,9.37h-6.82l3.25-9.37h-.87l-5.11,14.42h1l1.47-4.22h7.4Zm-6.67-6.4h3l-1.51-4.35Z"/><path class="cls-1" d="M511,112.3h5.39a7.51,7.51,0,0,1,7.88,7.89,7.6,7.6,0,0,1-7.88,7.88H511Zm5.25,13.63a5.75,5.75,0,0,0,0-11.49h-2.93v11.49Z"/><path class="cls-1" d="M516.43,128.75h-6.07V111.63h6.07a8.19,8.19,0,0,1,8.56,8.56A8.28,8.28,0,0,1,516.43,128.75Zm-4.71-1.35h4.71a6.9,6.9,0,0,0,7.2-7.21,6.82,6.82,0,0,0-7.2-7.21h-4.71Zm4.57-.79h-3.6V113.77h3.6a6.42,6.42,0,0,1,0,12.84ZM514,125.26h2.25a5.07,5.07,0,0,0,0-10.14H514Z"/><path class="cls-1" d="M555.38,112.3h2.39L566,124.2V112.3h2.27v15.77h-2.41l-8.24-11.87v11.87h-2.26Z"/><path class="cls-1" d="M569,128.75h-3.44l-7.22-10.39v10.39h-3.6V111.63h3.42l7.21,10.4v-10.4H569Zm-2.73-1.35h1.38V113h-.93v13.38L557.42,113h-1.36V127.4h.9V114Z"/><path class="cls-1" d="M587.85,112.3h3.09l5.56,15.77H594l-1.46-4.21h-6.44l-1.47,4.21h-2.41Zm4,9.37-2.45-7.09-2.46,7.09Z"/><path class="cls-1" d="M597.46,128.75h-3.9l-1.46-4.21h-5.48l-1.47,4.21H581.3l6.07-17.12h4Zm-2.93-1.35h1L590.46,113h-.94l3.24,9.37H586L589.2,113h-.87l-5.11,14.42h1l1.47-4.22h7.4Zm-6.68-6.4h3l-1.5-4.35Z"/><path class="cls-1" d="M608.78,120.19a7.78,7.78,0,0,1,7.93-8.09,7.47,7.47,0,0,1,7.08,4.44l-2.1,1.12a5.25,5.25,0,0,0-5-3.26,5.8,5.8,0,0,0,0,11.58,5.29,5.29,0,0,0,5.07-3.47l2.07,1.1a7.42,7.42,0,0,1-7.14,4.67A7.79,7.79,0,0,1,608.78,120.19Z"/><path class="cls-1" d="M616.71,129a8.49,8.49,0,0,1-8.61-8.76,8.41,8.41,0,0,1,8.61-8.77,8.16,8.16,0,0,1,7.69,4.84l.26.58-3.3,1.77-.29-.68a4.6,4.6,0,0,0-4.36-2.86,5.12,5.12,0,0,0,0,10.23,4.61,4.61,0,0,0,4.44-3l.28-.71,3.28,1.75-.23.57A8.08,8.08,0,0,1,616.71,129Zm0-16.17a7.41,7.41,0,0,0,0,14.82,6.77,6.77,0,0,0,6.26-3.69l-.87-.47a6,6,0,0,1-5.39,3.21,6.47,6.47,0,0,1,0-12.93,5.89,5.89,0,0,1,5.28,3l.9-.49A6.79,6.79,0,0,0,616.71,112.78Z"/><path class="cls-1" d="M638.16,112.3h2.34v15.77h-2.34Z"/><path class="cls-1" d="M641.18,128.75h-3.7V111.63h3.7Zm-2.34-1.35h1V113h-1Z"/><path class="cls-1" d="M654.81,120.19a8.06,8.06,0,1,1,8,8.09A7.83,7.83,0,0,1,654.81,120.19Zm8,5.86a5.86,5.86,0,1,0-5.63-5.86A5.61,5.61,0,0,0,662.85,126.05Z"/><path class="cls-1" d="M662.85,129a8.77,8.77,0,1,1,8.75-8.76A8.55,8.55,0,0,1,662.85,129Zm0-16.17a7.41,7.41,0,1,0,7.39,7.41A7.14,7.14,0,0,0,662.85,112.78Zm0,13.94a6.54,6.54,0,1,1,6.34-6.53A6.28,6.28,0,0,1,662.85,126.72Zm0-11.71a5.18,5.18,0,1,0,5,5.18A4.9,4.9,0,0,0,662.85,115Z"/><path class="cls-1" d="M685.23,112.3h2.39l8.24,11.9V112.3h2.28v15.77h-2.41l-8.25-11.87v11.87h-2.25Z"/><path class="cls-1" d="M698.82,128.75h-3.45l-7.21-10.39v10.39h-3.61V111.63H688l7.22,10.4v-10.4h3.63Zm-2.74-1.35h1.38V113h-.92v13.38L687.26,113h-1.35V127.4h.89V114Z"/><path class="cls-1" d="M717.7,112.3h3.08l5.57,15.77h-2.46l-1.46-4.21H716l-1.46,4.21h-2.41Zm4,9.37-2.46-7.09-2.45,7.09Z"/><path class="cls-1" d="M727.3,128.75h-3.89L722,124.54h-5.49L715,128.75h-3.85l6.07-17.12h4Zm-2.93-1.35h1L720.3,113h-.93l3.24,9.37H715.8L719,113h-.87l-5.1,14.42h1l1.46-4.22h7.41ZM717.7,121h3l-1.51-4.35Z"/><path class="cls-1" d="M740.32,112.3h2.32V126h7.48v2.11h-9.8Z"/><path class="cls-1" d="M750.79,128.75H739.64V111.63h3.67v13.65h7.48ZM741,127.4h8.45v-.77H742V113h-1Z"/><path class="cls-2" d="M189,154.51c0-7,5-12.46,12.21-12.46a11.5,11.5,0,0,1,10.9,6.84l-3.23,1.73a8.09,8.09,0,0,0-7.67-5c-5.17,0-8.5,4-8.5,8.92s3.37,8.91,8.5,8.91a8.17,8.17,0,0,0,7.81-5.34l3.19,1.7a11.43,11.43,0,0,1-11,7.18C194,167,189,161.48,189,154.51Z"/><path class="cls-2" d="M201.25,168.31a13.38,13.38,0,0,1-13.56-13.8c0-7.88,5.83-13.81,13.56-13.81a12.88,12.88,0,0,1,12.13,7.63l.52,1.15-5.65,3-.58-1.37a6.75,6.75,0,0,0-6.42-4.21c-4.21,0-7.14,3.11-7.14,7.57s3,7.56,7.14,7.56a6.83,6.83,0,0,0,6.55-4.48l.55-1.42,5.61,3-.46,1.13A12.74,12.74,0,0,1,201.25,168.31Zm0-24.91c-6.29,0-10.86,4.67-10.86,11.11s4.57,11.1,10.86,11.1a10.15,10.15,0,0,0,9.22-5.24l-.8-.43a9.52,9.52,0,0,1-8.42,4.84c-5.71,0-9.85-4.32-9.85-10.27s4.14-10.27,9.85-10.27a9.38,9.38,0,0,1,8.24,4.53l.84-.45A10.15,10.15,0,0,0,201.25,143.4Z"/><path class="cls-2" d="M225,142.36h4.75l8.57,24.29h-3.78l-2.26-6.49h-9.92l-2.26,6.49h-3.71Zm6.1,14.44-3.78-10.93-3.78,10.93Z"/><path class="cls-2" d="M240.25,168h-6.66l-2.25-6.49h-8L221.09,168H214.5l9.56-27h6.67Zm-4.73-2.71h.9l-7.61-21.57H228l5,14.43H221.66l5-14.43H226l-7.64,21.57h.83l2.26-6.48h11.84Zm-10.06-9.85h3.76L227.34,150Z"/><path class="cls-2" d="M257.52,159.92c0-1.77-1.28-2.85-3.54-3.4l-3.81-.94c-3.65-.87-6.21-2.84-6.21-6.66,0-4.2,3.6-6.87,8.32-6.87,5.1,0,7.88,2.92,8.71,5.55l-3.16,1.67a5.4,5.4,0,0,0-5.55-3.92c-2.84,0-4.68,1.38-4.68,3.5,0,1.77,1.32,2.78,3.36,3.26l4,.94c4.27,1,6.28,3.5,6.28,6.8,0,3.85-3.12,7.11-9.16,7.11-5.37,0-8.43-3.12-9.4-5.79l3.09-1.74c.69,2.33,3.12,4.16,6.38,4.16C256,163.59,257.52,161.83,257.52,159.92Z"/><path class="cls-2" d="M252.07,168.31c-6.08,0-9.55-3.6-10.67-6.68l-.39-1.08,5.56-3.13.49,1.62c.47,1.6,2.23,3.2,5.08,3.2,1.21,0,4-.23,4-2.32,0-.44,0-1.47-2.51-2.09l-3.82-.93c-6-1.43-7.24-5.13-7.24-8,0-4.84,4-8.22,9.68-8.22,5.87,0,9,3.5,10,6.49l.34,1.08-5.72,3-.39-1.73a4.06,4.06,0,0,0-4.23-2.86c-1.61,0-3.33.57-3.33,2.15,0,.42,0,1.39,2.33,1.94l4,.94c4.73,1.15,7.33,4,7.33,8.12S259.34,168.31,252.07,168.31Zm-7.64-6.58c1.17,2,3.66,3.88,7.64,3.88,4.75,0,7.81-2.26,7.81-5.76,0-2.79-1.77-4.64-5.25-5.49l-4-.93c-3.83-.91-4.4-3.26-4.4-4.58,0-2.91,2.42-4.86,6-4.86a7,7,0,0,1,6.24,3.38l.74-.39c-1-1.87-3.26-3.58-7-3.58-3.47,0-7,1.71-7,5.52,0,1.77.54,4.24,5.17,5.34l3.83.94c3.77.93,4.57,3.08,4.57,4.72,0,2.43-1.77,5-6.74,5a8,8,0,0,1-7-3.61Z"/><path class="cls-2" d="M268.86,142.36h3.61v24.29h-3.61Z"/><path class="cls-2" d="M273.83,168h-6.32V141h6.32Zm-3.61-2.71h.9V143.72h-.9Z"/><path class="cls-2" d="M281.67,142.36h4.85l7.36,19.43,7.35-19.43h4.82v24.29h-3.47V148.3l-7,18.35h-3.47l-7-18.35v18.35h-3.46Z"/><path class="cls-2" d="M307.41,168h-6.18V155.64L296.51,168h-5.34l-4.68-12.33V168h-6.18V141h3.47v-.09l0,.09h3.65l6.42,17,6.42-17h3.62l0-.06V141h3.47Zm-3.47-2.71h.76V143.72h-.76Zm-9.94,0h.64l8.24-21.57h-.71Zm-1,0h.72l-8.17-21.57h-.75Zm-10,0h.76V143.72H283Z"/><path class="cls-2" d="M315.25,142.36h3.6v24.29h-3.6Z"/><path class="cls-2" d="M320.21,168h-6.32V141h6.32Zm-3.61-2.71h.9V143.72h-.9Z"/><path class="cls-2" d="M328.05,142.36h9.61c4.92,0,8,3.33,8,7.39a7.3,7.3,0,0,1-5.06,7.08l5.65,6.59v3.23h-3.64v-2.29l-6-7h-5.06v9.33h-3.54Zm9.57,11.69a4.22,4.22,0,1,0,0-8.43h-6v8.43Z"/><path class="cls-2" d="M347.65,168H341.3v-3.14L336,158.67h-3.09V168h-6.25V141h11c5.44,0,9.4,3.68,9.4,8.74a8.6,8.6,0,0,1-4.23,7.55l4.82,5.62ZM344,165.29h.93v-1.37l-6.62-7.71,1.87-.66a5.93,5.93,0,0,0,4.16-5.8c0-3.55-2.75-6-6.69-6H329.4v21.57h.83V156h7l6.74,7.9Zm-6.39-9.88h-7.39V144.27h7.39a5.57,5.57,0,1,1,0,11.14Zm-4.68-2.71h4.68a2.87,2.87,0,1,0,0-5.72h-4.68Z"/><path class="cls-2" d="M351.84,154.51A12.41,12.41,0,1,1,364.23,167,12.06,12.06,0,0,1,351.84,154.51Zm12.39,9c5.24,0,8.71-4.1,8.71-9s-3.47-9-8.71-9-8.67,4.09-8.67,9S359,163.53,364.23,163.53Z"/><path class="cls-2" d="M364.23,168.31A13.81,13.81,0,1,1,378,154.51,13.47,13.47,0,0,1,364.23,168.31Zm0-24.91a11.11,11.11,0,1,0,11.06,11.11A10.71,10.71,0,0,0,364.23,143.4Zm0,21.48c-5.72,0-10-4.46-10-10.37s4.31-10.38,10-10.38a10.38,10.38,0,0,1,0,20.75Zm0-18c-4.24,0-7.32,3.22-7.32,7.67s3.08,7.66,7.32,7.66,7.35-3.22,7.35-7.66S368.49,146.84,364.23,146.84Z"/><path class="cls-2" d="M408.29,159.92c0-1.77-1.29-2.85-3.54-3.4l-3.82-.94c-3.64-.87-6.21-2.84-6.21-6.66,0-4.2,3.61-6.87,8.33-6.87,5.1,0,7.87,2.92,8.71,5.55l-3.16,1.67a5.4,5.4,0,0,0-5.55-3.92c-2.85,0-4.69,1.38-4.69,3.5,0,1.77,1.32,2.78,3.37,3.26l4,.94c4.27,1,6.28,3.5,6.28,6.8,0,3.85-3.12,7.11-9.16,7.11-5.38,0-8.43-3.12-9.4-5.79l3.09-1.74c.69,2.33,3.12,4.16,6.38,4.16C406.79,163.59,408.29,161.83,408.29,159.92Z"/><path class="cls-2" d="M402.84,168.31c-6.08,0-9.55-3.6-10.67-6.68l-.4-1.08,5.57-3.13.48,1.62c.48,1.6,2.24,3.2,5.09,3.2,1.21,0,4-.23,4-2.32,0-.44,0-1.47-2.51-2.09l-3.81-.93c-6-1.43-7.24-5.13-7.24-8,0-4.84,4-8.22,9.68-8.22,5.86,0,9.05,3.5,10,6.49l.34,1.08-5.72,3-.39-1.73a4.06,4.06,0,0,0-4.23-2.86c-1.61,0-3.33.57-3.33,2.15,0,.42,0,1.39,2.32,1.94l4,.94c4.73,1.15,7.32,4,7.32,8.12S410.1,168.31,402.84,168.31Zm-7.64-6.58c1.16,2,3.65,3.88,7.64,3.88,4.74,0,7.8-2.26,7.8-5.76,0-2.79-1.76-4.64-5.24-5.49l-4-.93c-3.84-.91-4.41-3.26-4.41-4.58,0-2.91,2.43-4.86,6-4.86a7,7,0,0,1,6.24,3.38L410,147c-1-1.87-3.26-3.58-7-3.58-3.47,0-7,1.71-7,5.52,0,1.77.53,4.24,5.17,5.34l3.82.94c3.78.93,4.57,3.08,4.57,4.72,0,2.43-1.77,5-6.73,5a8.08,8.08,0,0,1-7-3.61Z"/><path class="cls-2" d="M417.72,154.51A12.41,12.41,0,1,1,430.11,167,12.06,12.06,0,0,1,417.72,154.51Zm12.39,9c5.24,0,8.7-4.1,8.7-9s-3.46-9-8.7-9-8.68,4.09-8.68,9S424.87,163.53,430.11,163.53Z"/><path class="cls-2" d="M430.11,168.31a13.81,13.81,0,1,1,13.77-13.8A13.46,13.46,0,0,1,430.11,168.31Zm0-24.91a11.11,11.11,0,1,0,11.06,11.11A10.71,10.71,0,0,0,430.11,143.4Zm0,21.48c-5.72,0-10-4.46-10-10.37s4.31-10.38,10-10.38a10.38,10.38,0,0,1,0,20.75Zm0-18c-4.24,0-7.32,3.22-7.32,7.67s3.08,7.66,7.32,7.66,7.35-3.22,7.35-7.66S434.37,146.84,430.11,146.84Z"/><path class="cls-2" d="M454.88,145.69h-7.77v-3.33h19.18v3.33h-7.77v21h-3.64Z"/><path class="cls-2" d="M459.87,168h-6.35V147.05h-7.77v-6h21.89v6h-7.77Zm-3.64-2.71h.94V144.34h7.77v-.62H448.46v.62h7.77Z"/><path class="cls-2" d="M473.3,142.36h16v3.3H476.87v6.83h11.31v3.26H476.87v7.6h12.39v3.3h-16Z"/><path class="cls-2" d="M490.61,168H471.94V141h18.67v6H478.22v4.13h11.31v6H478.22V162h12.39Zm-16-2.71H487.9v-.58H475.52V154.4h11.31v-.55H475.52V144.3H487.9v-.58H474.65Z"/><path class="cls-2" d="M497.06,142.36h3.57v21h11.52v3.26H497.06Z"/><path class="cls-2" d="M513.5,168H495.71V141H502v21H513.5Zm-15.09-2.71H510.8v-.55H499.28v-21h-.87Z"/><path class="cls-2" d="M515,154.51A12.41,12.41,0,1,1,527.35,167,12.06,12.06,0,0,1,515,154.51Zm12.39,9c5.23,0,8.7-4.1,8.7-9s-3.47-9-8.7-9-8.68,4.09-8.68,9S522.11,163.53,527.35,163.53Z"/><path class="cls-2" d="M527.35,168.31a13.81,13.81,0,1,1,13.77-13.8A13.46,13.46,0,0,1,527.35,168.31Zm0-24.91a11.11,11.11,0,1,0,11.06,11.11A10.71,10.71,0,0,0,527.35,143.4Zm0,21.48c-5.72,0-10-4.46-10-10.37s4.31-10.38,10-10.38a10.38,10.38,0,0,1,0,20.75Zm0-18c-4.25,0-7.32,3.22-7.32,7.67s3.07,7.66,7.32,7.66,7.35-3.22,7.35-7.66S531.61,146.84,527.35,146.84Z"/><path class="cls-2" d="M558.12,142.36H563l7.36,19.43,7.35-19.43h4.82v24.29H579V148.3l-7,18.35h-3.47l-7-18.35v18.35h-3.47Z"/><path class="cls-2" d="M583.86,168h-6.18V155.64L573,168h-5.34l-4.68-12.33V168h-6.18V141h3.47v-.09l0,.09h3.64l6.42,17,6.42-17h3.62l0-.06V141h3.47Zm-3.47-2.71h.76V143.72h-.76Zm-9.94,0h.65l8.23-21.57h-.71Zm-1,0h.72L562,143.72h-.75Zm-10,0h.76V143.72h-.76Z"/><path class="cls-2" d="M589.79,154.51A12.4,12.4,0,1,1,602.17,167,12,12,0,0,1,589.79,154.51Zm12.38,9c5.24,0,8.71-4.1,8.71-9s-3.47-9-8.71-9-8.67,4.09-8.67,9S596.94,163.53,602.17,163.53Z"/><path class="cls-2" d="M602.17,168.31A13.81,13.81,0,1,1,616,154.51,13.47,13.47,0,0,1,602.17,168.31Zm0-24.91a11.11,11.11,0,1,0,11.07,11.11A10.71,10.71,0,0,0,602.17,143.4Zm0,21.48c-5.71,0-10-4.46-10-10.37s4.31-10.38,10-10.38a10.38,10.38,0,0,1,0,20.75Zm0-18c-4.24,0-7.32,3.22-7.32,7.67s3.08,7.66,7.32,7.66,7.36-3.22,7.36-7.66S606.43,146.84,602.17,146.84Z"/><path class="cls-2" d="M621.88,142.36h3.67l12.7,18.32V142.36h3.51v24.29H638l-12.69-18.29v18.29h-3.47Z"/><path class="cls-2" d="M643.11,168h-5.77L626.7,152.69V168h-6.18V141h5.74l10.64,15.34V141h6.21Zm-4.36-2.71h1.65V143.72h-.79V165l-14.76-21.29h-1.62v21.57H624V144Z"/><path class="cls-2" d="M656.53,145.69h-7.77v-3.33H668v3.33h-7.77v21h-3.65Z"/><path class="cls-2" d="M661.53,168h-6.35V147.05h-7.77v-6H669.3v6h-7.77Zm-3.64-2.71h.93V144.34h7.77v-.62H650.12v.62h7.77Z"/><path class="cls-2" d="M675,142.36h16v3.3H678.53v6.83h11.31v3.26H678.53v7.6h12.38v3.3H675Z"/><path class="cls-2" d="M692.27,168H673.6V141h18.67v6H679.88v4.13h11.31v6H679.88V162h12.39Zm-16-2.71h13.25v-.58H677.17V154.4h11.31v-.55H677.17V144.3h12.39v-.58H676.31Z"/><path class="cls-2" d="M698.72,142.36h3.67l12.7,18.32V142.36h3.51v24.29h-3.72l-12.69-18.29v18.29h-3.47Z"/><path class="cls-2" d="M720,168h-5.77l-10.64-15.31V168h-6.18V141h5.74l10.64,15.34V141H720Zm-4.36-2.71h1.65V143.72h-.79V165l-14.76-21.29h-1.62v21.57h.76V144Z"/><path class="cls-2" d="M727.79,142.36h16v3.3H731.36v6.83h11.31v3.26H731.36v7.6h12.39v3.3h-16Z"/><path class="cls-2" d="M745.1,168H726.43V141H745.1v6H732.71v4.13H744v6H732.71V162H745.1Zm-16-2.71h13.25v-.58H730V154.4h11.31v-.55H730V144.3h12.38v-.58H729.14Z"/><path class="cls-2" d="M749.64,154.51c0-7,4.93-12.46,12.14-12.46,5.07,0,8.78,2.53,10.45,6.18l-3.3,1.7a7.4,7.4,0,0,0-7.15-4.34c-5.16,0-8.43,4.13-8.43,8.92s3.27,8.91,8.43,8.91c4,0,7.57-2.29,7.88-6.49H762V153.6h11.1v13.05h-3.4v-3.19a10.13,10.13,0,0,1-8,3.5C754.57,167,749.64,161.48,749.64,154.51Z"/><path class="cls-2" d="M761.65,168.31c-7.62,0-13.36-5.93-13.36-13.8S754,140.7,761.78,140.7c5.32,0,9.68,2.6,11.68,7l.54,1.18-5.71,2.94-.59-1.29a6,6,0,0,0-5.92-3.55c-4.64,0-7.07,3.81-7.07,7.57s2.43,7.56,7.07,7.56c2.61,0,5.33-1.18,6.23-3.78h-7.37v-6h13.81V168h-6.11v-1.54A12.36,12.36,0,0,1,761.65,168.31Zm.13-24.91c-6.25,0-10.78,4.67-10.78,11.11s4.48,11.1,10.65,11.1a8.82,8.82,0,0,0,7-3l2.41-3v5.69h.69V155h-8.39v.62h7.77L771,157c-.34,4.56-4.13,7.75-9.23,7.75-5.57,0-9.78-4.42-9.78-10.27s4.21-10.27,9.78-10.27a8.88,8.88,0,0,1,7.7,3.88l.9-.46A9.93,9.93,0,0,0,761.78,143.4Z"/><path class="cls-2" d="M781.59,142.36h9.61c4.93,0,8,3.33,8,7.39a7.3,7.3,0,0,1-5.06,7.08l5.65,6.59v3.23H796.2v-2.29l-6-7h-5.07v9.33h-3.54Zm9.58,11.69a4.22,4.22,0,1,0,0-8.43h-6v8.43Z"/><path class="cls-2" d="M801.19,168h-6.35v-3.14l-5.27-6.19h-3.08V168h-6.25V141h11c5.45,0,9.41,3.68,9.41,8.74a8.61,8.61,0,0,1-4.24,7.55l4.82,5.62Zm-3.64-2.71h.94v-1.37l-6.62-7.71,1.87-.66a6,6,0,0,0,4.16-5.8c0-3.55-2.76-6-6.7-6H783v21.57h.83V156h7l6.73,7.9Zm-6.38-9.88h-7.39V144.27h7.39a5.57,5.57,0,1,1,0,11.14Zm-4.68-2.71h4.68a2.87,2.87,0,1,0,0-5.72h-4.68Z"/><path class="cls-2" d="M805.39,154.51A12.41,12.41,0,1,1,817.78,167,12.06,12.06,0,0,1,805.39,154.51Zm12.39,9c5.23,0,8.7-4.1,8.7-9s-3.47-9-8.7-9-8.68,4.09-8.68,9S812.54,163.53,817.78,163.53Z"/><path class="cls-2" d="M817.78,168.31a13.81,13.81,0,1,1,13.77-13.8A13.46,13.46,0,0,1,817.78,168.31Zm0-24.91a11.11,11.11,0,1,0,11.06,11.11A10.71,10.71,0,0,0,817.78,143.4Zm0,21.48c-5.72,0-10-4.46-10-10.37s4.31-10.38,10-10.38a10.38,10.38,0,0,1,0,20.75Zm0-18c-4.25,0-7.32,3.22-7.32,7.67s3.07,7.66,7.32,7.66,7.35-3.22,7.35-7.66S822,146.84,817.78,146.84Z"/><path class="cls-1" d="M221.7,193.5l.19,7.37v2.57h-1.95v-2.59l.18-7.35Zm.15-4.93v2.56H220v-2.56Z"/><path class="cls-1" d="M228.59,192.93v6.7h-1.8V184.86h4a3.49,3.49,0,0,1,3.86,3.86c0,2.19-1.1,3.13-2,3.44,1.33.49,1.78,1.65,1.78,3.75v.58a16.91,16.91,0,0,0,.2,3.14h-1.79a14,14,0,0,1-.22-3.17V196c0-2.08-.44-3-2.37-3Zm0-1.52h1.77c1.76,0,2.43-1,2.43-2.63,0-1.45-.67-2.39-2.26-2.39h-1.94Z"/><path class="cls-1" d="M245.79,192.64H240.9V198h5.44l-.24,1.59h-7V184.86H246v1.62H240.9V191h4.89Z"/><path class="cls-1" d="M253.09,199.63l-3.66-14.77h1.95l1.59,6.87c.47,2,1,4.55,1.19,6h0c.19-1.32.87-3.91,1.35-6l1.62-6.89h1.88l-3.79,14.77Z"/><path class="cls-1" d="M271,192.12c0,5.11-1.25,7.74-4.49,7.74-3.07,0-4.38-2.55-4.38-7.72s1.54-7.49,4.46-7.49C269.69,184.65,271,187.09,271,192.12Zm-7,0c0,4.08.79,6.2,2.56,6.2s2.57-2,2.57-6.17-.78-5.91-2.58-5.91S264,188.22,264,192.1Z"/><path class="cls-1" d="M275.48,184.86h1.82v13.19h5.23l-.24,1.58h-6.81Z"/><path class="cls-1" d="M287.62,184.86v10.33c0,1.55.44,3.12,2.33,3.12s2.33-1.32,2.33-3.12V184.86h1.82v10.36c0,2.68-1,4.65-4.19,4.65s-4.11-1.85-4.11-4.58V184.86Z"/><path class="cls-1" d="M306.91,195.5c-.06.84-.42,4.36-4.1,4.36-4,0-4.31-4.07-4.31-7.7,0-4.39,1.18-7.51,4.49-7.51,3.63,0,3.84,3.34,3.89,4.29h-1.82c0-.5-.12-2.7-2.1-2.7-2.2,0-2.57,3-2.57,5.94s.33,6.1,2.47,6.1c1.89,0,2.16-2.06,2.22-2.78Z"/><path class="cls-1" d="M312.85,184.86v14.77H311V184.86Z"/><path class="cls-1" d="M326.23,192.12c0,5.11-1.25,7.74-4.49,7.74-3.06,0-4.38-2.55-4.38-7.72s1.54-7.49,4.47-7.49C324.92,184.65,326.23,187.09,326.23,192.12Zm-7,0c0,4.08.79,6.2,2.57,6.2s2.56-2,2.56-6.17-.78-5.91-2.57-5.91S319.23,188.22,319.23,192.1Z"/><path class="cls-1" d="M330.71,199.63V184.86h2.18c3.89,9.84,4.47,11.26,4.65,11.91h0c-.11-1.94-.13-4.15-.13-6.56v-5.35h1.67v14.77H337c-4-10.35-4.56-11.75-4.73-12.35h0c.11,1.84.12,4.22.12,6.87v5.48Z"/><path class="cls-1" d="M345.72,195.13l-1,4.5H342.9l3.54-14.77h2.35l3.63,14.77H350.5l-1-4.5Zm3.4-1.6c-.8-3.48-1.33-5.74-1.53-7h-.06c-.19,1.3-.77,3.87-1.46,7Z"/><path class="cls-1" d="M356.14,199.63V184.86h2.19c3.89,9.84,4.46,11.26,4.65,11.91h0c-.1-1.94-.13-4.15-.13-6.56v-5.35h1.68v14.77h-2.09c-4-10.35-4.57-11.75-4.74-12.35h0c.11,1.84.12,4.22.12,6.87v5.48Z"/><path class="cls-1" d="M369.57,184.86H373c3.48,0,5,2.39,5,7,0,5-1.39,7.75-5.23,7.75h-3.16Zm1.82,13.24h1.28c2.58,0,3.41-2,3.41-6.18,0-3.82-.94-5.5-3.39-5.5h-1.3Z"/><path class="cls-1" d="M390.9,192.12c0,5.11-1.25,7.74-4.49,7.74-3.07,0-4.38-2.55-4.38-7.72s1.54-7.49,4.47-7.49S390.9,187.09,390.9,192.12Zm-7,0c0,4.08.79,6.2,2.57,6.2s2.56-2,2.56-6.17-.78-5.91-2.58-5.91S383.9,188.22,383.9,192.1Z"/><path class="cls-1" d="M401.68,184.86h1.82v13.19h5.23l-.23,1.58h-6.82Z"/><path class="cls-1" d="M414.65,195.13l-1,4.5h-1.81l3.54-14.77h2.35l3.63,14.77h-1.92l-1-4.5Zm3.4-1.6c-.8-3.48-1.33-5.74-1.53-7h-.06c-.19,1.3-.77,3.87-1.46,7Z"/><path class="cls-1" d="M439.29,195.5c-.06.84-.42,4.36-4.1,4.36-4,0-4.31-4.07-4.31-7.7,0-4.39,1.18-7.51,4.49-7.51,3.62,0,3.84,3.34,3.89,4.29h-1.82c0-.5-.12-2.7-2.1-2.7-2.2,0-2.57,3-2.57,5.94s.33,6.1,2.47,6.1c1.89,0,2.16-2.06,2.22-2.78Z"/><path class="cls-1" d="M451.93,192.12c0,5.11-1.25,7.74-4.49,7.74-3.06,0-4.38-2.55-4.38-7.72s1.54-7.49,4.47-7.49C450.62,184.65,451.93,187.09,451.93,192.12Zm-7,0c0,4.08.79,6.2,2.57,6.2s2.56-2,2.56-6.17-.78-5.91-2.57-5.91S444.93,188.22,444.93,192.1Z"/><path class="cls-1" d="M456.41,199.63V184.86h2.18c3.89,9.84,4.47,11.26,4.65,11.91h0c-.11-1.94-.13-4.15-.13-6.56v-5.35h1.67v14.77h-2.09c-4-10.35-4.56-11.75-4.73-12.35h0c.11,1.84.12,4.22.12,6.87v5.48Z"/><path class="cls-1" d="M477.7,195.5c-.07.84-.43,4.36-4.1,4.36-4,0-4.32-4.07-4.32-7.7,0-4.39,1.19-7.51,4.49-7.51,3.63,0,3.85,3.34,3.89,4.29h-1.82c0-.5-.11-2.7-2.1-2.7-2.2,0-2.57,3-2.57,5.94s.34,6.1,2.47,6.1c1.9,0,2.16-2.06,2.23-2.78Z"/><path class="cls-1" d="M483.64,184.86v14.77h-1.82V184.86Z"/><path class="cls-1" d="M495.39,192.64h-4.9V198h5.45l-.24,1.59h-7V184.86h6.93v1.62h-5.14V191h4.9Z"/><path class="cls-1" d="M499.86,199.63V184.86h2.19c3.89,9.84,4.46,11.26,4.65,11.91h0c-.11-1.94-.13-4.15-.13-6.56v-5.35h1.68v14.77h-2.1c-4-10.35-4.56-11.75-4.73-12.35h0c.11,1.84.12,4.22.12,6.87v5.48Z"/><path class="cls-1" d="M521.15,195.5c-.07.84-.42,4.36-4.1,4.36-4,0-4.31-4.07-4.31-7.7,0-4.39,1.18-7.51,4.49-7.51,3.62,0,3.84,3.34,3.88,4.29h-1.82c0-.5-.11-2.7-2.1-2.7-2.2,0-2.56,3-2.56,5.94s.33,6.1,2.46,6.1c1.9,0,2.16-2.06,2.23-2.78Z"/><path class="cls-1" d="M527.09,184.86v14.77h-1.82V184.86Z"/><path class="cls-1" d="M533.74,195.13l-1,4.5h-1.82l3.54-14.77h2.36l3.63,14.77h-1.92l-1-4.5Zm3.4-1.6c-.8-3.48-1.33-5.74-1.54-7h-.05c-.2,1.3-.77,3.87-1.47,7Z"/><path class="cls-1" d="M543.59,202.07a18.67,18.67,0,0,0,1.21-5.32h1.71a13.79,13.79,0,0,1-1.48,5.32Z"/><path class="cls-1" d="M556.87,184.86h1.81v13.19h5.24l-.24,1.58h-6.81Z"/><path class="cls-1" d="M567.55,184.86h1.82v13.19h5.23l-.24,1.58h-6.81Z"/><path class="cls-1" d="M584.92,192.64H580V198h5.44l-.24,1.59h-7V184.86h6.93v1.62H580V191h4.89Z"/><path class="cls-1" d="M597.52,199.63H596.1a13.4,13.4,0,0,1-.1-1.53,2.92,2.92,0,0,1-3,1.76c-3.17,0-4.06-3.19-4.06-7.58,0-5.14,1.61-7.63,4.64-7.63,3.63,0,3.86,3.19,3.9,4.08h-1.81c0-.54-.16-2.51-2.14-2.51s-2.7,2.42-2.7,6,.52,6,2.53,6,2.32-1.56,2.32-4.48v-.74h-2.45V191.5h4.25Z"/><path class="cls-1" d="M604.1,195.13l-1,4.5h-1.82l3.54-14.77h2.35l3.64,14.77h-1.93l-1-4.5Zm3.41-1.6c-.8-3.48-1.34-5.74-1.54-7h-.05c-.2,1.3-.78,3.87-1.47,7Z"/><path class="cls-1" d="M623.42,193.49c0-2.71,0-5.5.09-7.07h0c-.54,2.6-1.78,8.52-2.92,13.21h-1.71c-.86-4.13-2.16-10.49-2.68-13.25h-.07c.09,1.72.15,5,.15,7.48v5.77h-1.69V184.86h2.7c1.12,4.54,2.18,9.88,2.53,11.85h0c.28-1.67,1.62-7.49,2.72-11.85h2.67v14.77h-1.77Z"/><path class="cls-1" d="M638.53,192.12c0,5.11-1.25,7.74-4.48,7.74-3.07,0-4.38-2.55-4.38-7.72s1.53-7.49,4.46-7.49C637.22,184.65,638.53,187.09,638.53,192.12Zm-7,0c0,4.08.79,6.2,2.57,6.2s2.56-2,2.56-6.17-.78-5.91-2.57-5.91S631.53,188.22,631.53,192.1Z"/><path class="cls-1" d="M643.94,195.7c.12,1.47.8,2.65,2.37,2.65s2.22-.84,2.22-2.42-.62-2.3-2.6-3.25c-2.36-1.12-3.37-2.15-3.37-4.31a3.52,3.52,0,0,1,3.8-3.71c2.94,0,3.72,2.08,3.76,3.85h-1.78c-.08-.74-.3-2.36-2-2.36a1.83,1.83,0,0,0-1.92,2.07c0,1.35.6,2,2.43,2.85,2.59,1.23,3.58,2.45,3.58,4.7a3.78,3.78,0,0,1-4.13,4.08c-3,0-4-2-4.14-4.15Z"/><path class="cls-1" d="M662.57,195.13l-1,4.5h-1.81l3.53-14.77h2.36l3.63,14.77h-1.92l-1-4.5Zm3.4-1.6c-.8-3.48-1.33-5.74-1.53-7h-.06c-.2,1.3-.77,3.87-1.46,7Z"/><path class="cls-1" d="M679.35,184.86h1.81v13.19h5.23l-.23,1.58h-6.81Z"/><path class="cls-1" d="M692.31,195.13l-1,4.5h-1.82L693,184.86h2.35L699,199.63h-1.93l-1-4.5Zm3.4-1.6c-.79-3.48-1.33-5.74-1.53-7h0c-.2,1.3-.78,3.87-1.47,7Z"/><path class="cls-1" d="M709.09,184.86h1.82v13.19h5.23l-.24,1.58h-6.81Z"/><path class="cls-1" d="M721.59,184.86v14.77h-1.82V184.86Z"/><path class="cls-1" d="M726.64,184.86h4a3.33,3.33,0,0,1,3.64,3.63c0,1.95-.94,2.82-1.79,3.13a3.52,3.52,0,0,1,2.27,3.68,4,4,0,0,1-4.22,4.33h-3.87ZM730,191c1.81,0,2.44-.79,2.44-2.32a2.05,2.05,0,0,0-2.26-2.3h-1.79V191Zm-1.61,7.19h1.9c1.66,0,2.57-1,2.57-2.86a2.53,2.53,0,0,0-2.87-2.86h-1.6Z"/><path class="cls-1" d="M745.63,192.64h-4.89V198h5.44l-.24,1.59h-7V184.86h6.93v1.62h-5.13V191h4.89Z"/><path class="cls-1" d="M751.91,192.93v6.7H750.1V184.86h4c2.51,0,3.85,1.41,3.85,3.86,0,2.19-1.09,3.13-2,3.44,1.33.49,1.77,1.65,1.77,3.75v.58a15.92,15.92,0,0,0,.21,3.14h-1.79a13.39,13.39,0,0,1-.23-3.17V196c0-2.08-.43-3-2.36-3Zm0-1.52h1.77c1.75,0,2.42-1,2.42-2.63,0-1.45-.67-2.39-2.25-2.39h-1.94Z"/><path class="cls-1" d="M764.47,186.48h-3.26v-1.62h8.34v1.62h-3.26v13.15h-1.82Z"/><path class="cls-1" d="M773.67,195.13l-1,4.5h-1.82l3.54-14.77h2.36l3.63,14.77h-1.92l-1-4.5Zm3.4-1.6c-.8-3.48-1.33-5.74-1.53-7h-.06c-.2,1.3-.77,3.87-1.46,7Z"/><path class="cls-1" d="M784.09,184.86h3.39c3.48,0,5,2.39,5,7,0,5-1.39,7.75-5.23,7.75h-3.16Zm1.83,13.24h1.27c2.58,0,3.41-2,3.41-6.18,0-3.82-.93-5.5-3.38-5.5h-1.3Z"/><path class="cls-1" d="M797.69,194.73l-.18-7.3v-2.57h1.92v2.58l-.17,7.29Zm-.14,4.9v-2.48h1.8v2.48Z"/><path class="cls-1" d="M61.51,117.28c-1.93-1.94-5.16-3.7-7.7-1.9a5.46,5.46,0,0,0-.93.81,1.75,1.75,0,0,0-.48.34,5.36,5.36,0,0,0-1.25,3.69,16.52,16.52,0,0,0,.65,4.71,121.13,121.13,0,0,0,5.33,16.22c2,4.21,3.25,6.17,8.24,5.06l1.18-.21.09,1.18A36.77,36.77,0,0,0,75.9,168.1c3.36,3.38,6.71,6.89,10.08,10.24a28.09,28.09,0,0,0,6.09,4.72,13.19,13.19,0,0,0,2.73,1.09l.36.11.37.09a36.53,36.53,0,0,0,20.7-1.45,38.84,38.84,0,0,0,9.31-5.81,165.23,165.23,0,0,0,14.27-12.84c-.69.82-1.4,1.62-2.11,2.42-2.15,2.39-4.37,4.72-6.67,7-4.26,4-8.74,8.29-14.17,10.76a37.19,37.19,0,0,1-22.23,2c-6.18-1.48-10.47-6.64-14.79-10.92-2.71-2.78-6.65-6.38-8.76-9.62A39.31,39.31,0,0,1,64.72,149c-.07-.57-.13-1.09-.17-1.68l1.27,1c-.43.07-.86.16-1.3.22a8.45,8.45,0,0,1-4.13-.39l-.34-.13-.65-.35a8.4,8.4,0,0,1-2.85-3.44,52.52,52.52,0,0,1-3.48-9.37c-.91-3.18-1.72-6.36-2.43-9.59a17.64,17.64,0,0,1-.44-5A6.1,6.1,0,0,1,51.91,116a3.29,3.29,0,0,1,.62-.4l-.11.08a6.46,6.46,0,0,1,1.06-.81c2.82-1.77,6.15.18,8,2.42Z"/><path class="cls-1" d="M91.91,134.87c-1.52,2.95-3.68,6.65-1.8,9.86A8.12,8.12,0,0,0,91,146a4.77,4.77,0,0,1-1.3-1c-2.79-3.07-.5-7.8,2.17-10.14Z"/><path class="cls-1" d="M112.14,145.53c2.59-2.18,1.63-5-.32-7.21a16.58,16.58,0,0,1-3.5-5.22,7.28,7.28,0,0,1-.32-5,8.83,8.83,0,0,0,1,4.68,18.77,18.77,0,0,0,2.72,4,9.41,9.41,0,0,1,2.58,4.4,4,4,0,0,1-2.15,4.35Z"/><path class="cls-1" d="M76,171.85c1.24,3,1.87,9,0,11.74a14.63,14.63,0,0,0,0-1.48c-.19-3.42-.54-6.85,0-10.26Z"/><path class="cls-1" d="M75.16,181.85c-3.47,2.22-6.94,4.44-10.3,6.82a40.64,40.64,0,0,0-3.59,2.8c-.26.25-.52.52-.76.78-1.49,1.63-3.07,3.09-4.45,4.78a107.83,107.83,0,0,0-7,10.07c-2.09,3.26-4.22,6.52-6.46,9.68l-.48.65L41.38,216c4-.26,8.54-.47,12.57-.57,2.78-.09,5.6,0,8.37-.08A13.13,13.13,0,0,0,70,213a28.74,28.74,0,0,0,3.19-2.67,16.49,16.49,0,0,1-6.11,5,15.84,15.84,0,0,1-4.71,1c-4.19.3-8.35.46-12.53.79-3.42.23-6.9.52-10.32.76l1.2-1.6c2.05-2.85,4.85-7.25,6.82-10.22A87.81,87.81,0,0,1,54.84,196c1.52-1.78,3.34-3.3,5-4.94a19,19,0,0,1,2.52-2,110.21,110.21,0,0,1,12.84-7.23Z"/><path class="cls-1" d="M48.41,206.46c-7.65,5.85-15.66,11.2-23.29,17a38.7,38.7,0,0,0-3,2.53,6.73,6.73,0,0,0-.94,1.06,15,15,0,0,0-1.41,3.53,56.73,56.73,0,0,0-1.35,6.21c-.27,1.58-.5,3.17-.65,4.76a8.36,8.36,0,0,0-.05,1.5,13,13,0,0,1-.23-3.12,47.08,47.08,0,0,1,1-9.67,15.78,15.78,0,0,1,1.17-3.58,6.17,6.17,0,0,1,1-1.48,51.13,51.13,0,0,1,5.94-5,193.1,193.1,0,0,1,21.74-13.8Z"/><path class="cls-1" d="M142.26,170.65a22.51,22.51,0,0,1-1-13.76,23.93,23.93,0,0,1,1.64-4.39A80.44,80.44,0,0,0,147.7,135a45,45,0,0,1-4,19.14c-2.39,5.13-2.55,11-1.44,16.53Z"/><path class="cls-1" d="M146,146.94c3.57,2.52,7.91,3.16,10.59-.9,4.09-6.87,10.06-18.22,8.21-26.27a9.85,9.85,0,0,0-1.28-3,11.48,11.48,0,0,0-1-1.29c-3-3.21-6.95-1.44-9.67,1.13a12.34,12.34,0,0,0-3.36,4.89,12.57,12.57,0,0,1,4.39-6.77c4.48-3.69,9.09-2.44,11.65,2.64,4,8.51-2.58,20.84-7.16,28-3.08,5.24-8,5.44-12.36,1.53Z"/><path class="cls-1" d="M155,119.43c2.07-2.26,6.1-4.82,7.73-.69,1.37,3.28,1.12,7,.5,10.41-.9,4.59-3.83,12.46-8.24,14.6a4.81,4.81,0,0,1-2.39.47,4.83,4.83,0,0,0,2.23-.76c2-1.29,3.22-3.44,4.25-5.54a34.75,34.75,0,0,0,3.53-13.69,14.23,14.23,0,0,0-.69-5.16c-.31-.81-.75-1.69-1.68-1.85-1.86-.25-3.81,1.14-5.24,2.21Z"/><path class="cls-1" d="M148.11,138.57c-.3,1.52.35,2.61,1.87,1.74s1.09-1.24,2.72-1.93,3.37-.68,4.13-1.66c1.8-2.31.22-5.44.22-5.44s-.76-.54-1.41,1-.39,4.19-2.48,4.92S148.42,137,148.11,138.57Z"/><path class="cls-1" d="M158.94,223.33a28.94,28.94,0,0,1-1.55,9.33,1.21,1.21,0,0,0,1.68-.88c1-2.69.67-5.45.38-8.21C159.44,223.49,159.19,223.44,158.94,223.33Z"/><path class="cls-1" d="M155,62c-19.36-20.67-33.5-18.27-33.5-18.27.43-1.09,2.39-1.74,2.39-1.74a66,66,0,0,0-30.23,0C67.11,50.48,59.72,65.27,57.76,69.62A16.89,16.89,0,0,0,56.89,79c-4.35,3.7-3.48,6.31-3.48,6.31,1.09-.87.87-.44.87-.44-1.74,1.74-2.18,7.84-1.74,6.53a1.71,1.71,0,0,1,1.52-1.3h0l-.43,2.18C53,95.5,56,102,57.32,105.94s4.35,11.75,4.35,11.75A15.88,15.88,0,0,0,63,111.82c0-3,.65-3.7,2-12S69.5,79,69.5,79C98.87,78.1,103,73.1,103,73.1c10.88,4.57,22.19,3.26,30,6.74s6.3,16.53,10.44,21.54,3.26,12.83,3.48,16.31,2.61,3.7,2.61,3.7c1.52-5.22,4.78-6.53,4.78-6.53s.66-.65,2.18-4.78S158,97,158,97c0,2,1.31,2.17,1.31,2.17-.22-2.83,2.61-18.49,2.61-18.49C163,72,155,62,155,62ZM54.1,89.89Zm0,.17v0Zm0,0v0Zm0-.05v0Zm0,0v0Zm0,0v0Z"/><path class="cls-1" d="M80.16,201c.22-11.09-3.7-17.4-3.7-17.4-4.78,8.49,1.53,22.84,4.79,28.72s5,21.75,5,21.75-.43-17.4-3.48-22.84A19.39,19.39,0,0,1,80.16,201Z"/><path class="cls-1" d="M56.45,117.69s-1.52-1.74-2.39,0-.87,7,1.09,10.66C55.15,128.35,52.32,118.12,56.45,117.69Z"/><path class="cls-1" d="M64.18,144.12s-3.48-1.53-7.62-9.57C56.56,134.55,59.17,145.2,64.18,144.12Z"/><path class="cls-1" d="M76.21,115.81a7.15,7.15,0,0,1-6.6.46s.66,5.44,8.49,4.79a2.49,2.49,0,0,1,2-2.39s1.53,3.48,4.79,2.72,2.9-2.08,3.41-3.16a5.38,5.38,0,0,1,4,1.62,6,6,0,0,0-2.19-2.93,5.73,5.73,0,0,1,4,2s3.71,1,2.78-2.21-2.88-5-8.53-5.18-6.29,0-12.94-.43-5.4,3.2-5.26,3.66c0,0,3.18-1.13,5.25-.34S77.37,115.13,76.21,115.81Zm8.63,1.77a1.09,1.09,0,1,1-1.09,1.09A1.09,1.09,0,0,1,84.84,117.58Z"/><path class="cls-1" d="M131.17,113.45c3.7.65,4.57.65,4.57-.87s-6.28-3.79-16.63-2S108,113.06,108.71,115c0,0,3.53.2,3.32,1.28a1.73,1.73,0,0,0-.44,3,5.53,5.53,0,0,0,4.79,1.31S112.9,120,114,119.1c0,0,2.61-2.39,4.35-2.17,0,0-.38,3.42,3.62,4.43a4.11,4.11,0,0,0,4.21-2.48,1.92,1.92,0,0,1,.87,2.62s3.91,0,4.56-.66l-.43-1.08s2.32,1.12,2.35-1.72c0,0-3-2.64-5.61-3.07l1-.58s-.3-.73-1.82-.73C127,113.66,127.47,112.79,131.17,113.45Zm-8.7,5.22a.87.87,0,1,1,.87-.87A.87.87,0,0,1,122.47,118.67Z"/><path class="cls-1" d="M89.19,143a4.92,4.92,0,0,0,4.35,3.91s.34-1.79,2.89-1.11c0,0,3.85,2.64,5.81.9,0,0-.48-1-3.72-1.06C98.52,145.67,93.54,140,89.19,143Z"/><path class="cls-1" d="M103.11,145.64s3.91-2,7.39,0c0,0-.21.87-2,.87,0,0,2.61,1.52,4.35-1.74a4.13,4.13,0,0,0-4.2-2.13C105.72,143,103.76,143.9,103.11,145.64Z"/><path class="cls-1" d="M153.57,129.54a3.11,3.11,0,0,0,0-3.26c-1.09-1.52-1.09-1.09-1.52-1.74,0,0-1.09,2.39,0,3.26A5.81,5.81,0,0,1,153.57,129.54Z"/><path class="cls-1" d="M62.65,210.46c-3.26,1.3-6.74,1.3-10.87,1.95a14.63,14.63,0,0,0-7,3.27,26.29,26.29,0,0,1,11.31-.44c6.52,1.09,12.4-4.35,12.4-4.35C68.09,210.24,65.92,209.15,62.65,210.46Z"/><path class="cls-1" d="M67.22,217s4.35,5.44,2,7A5.73,5.73,0,0,1,72,227.2c1.08,2.61,4.78,15.23,9.13,16.1h3.92s-7.83-9.14-10-17.18S67.22,217,67.22,217Z"/><path class="cls-1" d="M89.19,235.9a23.22,23.22,0,0,0-1.31,7.4l3.48-.43s0-3.92-.65-5S90.49,232.64,89.19,235.9Z"/><path class="cls-1" d="M130.59,219.39a23.64,23.64,0,0,0-12.47,6.55,3.41,3.41,0,0,1,1.63.81,15.48,15.48,0,0,0-5.5,6.68c-1,2.79,1.21,7,1.21,7,8.74-.65,10.17-8.34,10.39-11.52a1.87,1.87,0,0,0,1.26,1.1c-.61-2.66,4.5-4.91,4.5-4.91s.41,0,9.81,3.07,14.11,2.45,14.11,2.45a22.19,22.19,0,0,0-8.08-3.28C142,226.13,130.59,219.39,130.59,219.39Z"/><path class="cls-1" d="M158.14,197c-7.4-4.78-13.92-24.14-13.92-24.14-3.05,24.14-16.75,33.71-23,41.21s-7.68,12.29-7.68,12.29A273.23,273.23,0,0,1,136.61,207c14.57-11.1,20.88,10.44,20.88,10.44S165.53,201.76,158.14,197Z"/><path class="cls-1" d="M144.11,173.59c4.3,8.56,8.67,17.64,16.23,23.64a22,22,0,0,0,3.38,2.05,28.16,28.16,0,0,1,3.78,2.32,21.45,21.45,0,0,1,6.36,7.3,14.77,14.77,0,0,1,1.79,6.67A21.17,21.17,0,0,0,168,205.14a28.73,28.73,0,0,0-5.54-3.25,21.31,21.31,0,0,1-4.63-2.76c-7.31-5.8-12.11-16.51-13.72-25.54Z"/><path class="cls-1" d="M114,165h0Z"/><path class="cls-1" d="M123,160.05,123,160H123c-7.71-6.08-15.13-4.57-18.61-3.92s-4.13-.65-9.13-1.31c-2.39-.31-5.14.95-7.35,2.34a15.82,15.82,0,0,0-4,3l-.12.2a.82.82,0,0,0-.11.37s-.12.61,1.14.63,3.23,1.47.64,1.84l-.74-.06c1.2,1,7.72,6.2,16.37,6.15a28.67,28.67,0,0,0,12.29-3.86L114,165c-14.76,5.67-22.53-.14-24.31-1.74a2.6,2.6,0,0,1,1.26-2.54c2-1.16,14.33-2.16,22.06-.57a13,13,0,0,1,4.69,1.8S123.79,162.94,123,160.05Z"/></svg>